<?xml version="1.0" standalone="no"?>
<!DOCTYPE svg PUBLIC "-//W3C//DTD SVG 20010904//EN"
 "http://www.w3.org/TR/2001/REC-SVG-20010904/DTD/svg10.dtd">
<svg version="1.0" xmlns="http://www.w3.org/2000/svg"
 width="425.000000pt" height="408.000000pt" viewBox="0 0 425.000000 408.000000"
 preserveAspectRatio="xMidYMid meet">
<metadata>
Created by potrace 1.16, written by Peter Selinger 2001-2019
</metadata>
<g transform="translate(0.000000,408.000000) scale(0.100000,-0.100000)"
fill="#000000" stroke="none">
<path d="M1975 3123 c-141 -22 -319 -91 -436 -169 -99 -65 -225 -188 -289
-280 -70 -101 -136 -243 -167 -361 -23 -87 -26 -116 -26 -268 0 -152 3 -180
26 -268 32 -120 107 -278 176 -372 28 -38 51 -72 51 -75 0 -4 -17 -14 -37 -24
-72 -33 -164 -88 -159 -93 3 -3 19 5 35 16 75 54 301 141 364 141 10 0 -21
-27 -70 -59 -125 -83 -124 -82 -113 -166 14 -103 14 -102 -23 -114 -19 -7 -55
-25 -82 -42 -26 -16 -49 -28 -52 -25 -3 2 18 46 46 96 28 51 51 98 51 104 0 6
-9 -7 -21 -29 -12 -22 -39 -72 -60 -111 -21 -39 -39 -77 -39 -83 0 -7 20 2 45
19 56 38 134 72 147 64 10 -6 9 29 -5 171 -3 32 122 55 333 62 96 3 179 9 184
13 5 5 -33 7 -85 5 -52 -2 -79 -1 -61 1 17 3 32 9 32 14 0 18 104 33 155 22
54 -12 67 -7 107 35 46 49 73 284 45 393 -11 40 -16 46 -49 54 -30 7 -48 5
-95 -13 -99 -39 -180 -60 -192 -50 -8 6 -8 5 -1 -3 15 -18 12 -25 -10 -31 -10
-3 -26 -20 -33 -38 l-15 -34 -10 25 c-6 14 -11 20 -11 13 -1 -14 -41 -13 -41
0 0 5 -7 4 -15 -3 -12 -10 -15 -10 -15 3 0 19 -41 51 -50 38 -3 -4 -15 -10
-27 -13 -19 -5 -23 -2 -23 17 0 24 0 24 -39 7 -22 -9 -43 -26 -47 -37 -5 -18
-7 -18 -11 -2 -3 13 -11 15 -31 10 -26 -6 -26 -6 -10 19 16 24 15 68 -2 68 -5
0 -6 -9 -3 -20 8 -30 -14 -24 -31 8 -15 26 -15 26 -16 4 0 -31 -24 -23 -29 9
-1 13 -12 37 -24 53 -14 20 -17 31 -9 34 7 2 12 15 12 30 0 20 3 23 12 14 19
-19 38 -14 38 9 0 16 -3 19 -12 12 -15 -12 -46 16 -43 38 2 8 -8 20 -21 26
-13 6 -24 7 -24 2 0 -5 -4 -9 -10 -9 -5 0 -10 9 -10 20 0 10 -10 24 -21 31
-17 9 -19 13 -8 20 7 4 18 4 25 -2 17 -14 34 12 23 36 -9 18 -9 18 -5 -2 4
-25 -9 -29 -34 -12 -11 8 -12 12 -2 16 6 2 12 18 12 35 0 30 1 30 19 14 17
-16 19 -16 25 6 l6 23 13 -22 c9 -16 16 -20 27 -13 8 5 27 10 42 10 21 0 25 4
21 20 -6 24 4 26 27 5 14 -13 16 -12 15 8 0 12 5 23 10 24 6 1 9 -5 7 -13 -2
-8 2 -14 8 -14 5 0 10 6 10 13 0 8 4 7 11 -3 8 -12 9 -9 5 13 -7 32 13 38 21
7 4 -15 9 -18 18 -10 7 6 19 8 27 5 9 -4 18 1 21 9 4 10 1 16 -8 16 -8 0 -15
5 -15 11 0 6 7 9 15 5 20 -7 15 16 -7 32 -27 20 -22 32 12 32 30 0 42 21 20
35 -15 9 -12 25 6 25 9 0 12 -5 8 -12 -4 -7 3 -3 16 10 20 21 23 22 39 8 10
-9 30 -16 46 -16 27 0 28 0 10 20 -16 18 -16 20 -2 20 10 0 17 8 17 20 0 20 0
20 -20 0 -23 -23 -49 -18 -29 6 9 12 6 14 -20 14 -27 0 -32 4 -38 30 -5 25 -8
28 -20 18 -11 -9 -16 -9 -23 3 -7 10 -1 20 18 36 l27 22 -23 1 c-15 0 -22 5
-19 13 2 6 13 11 23 9 18 -3 18 -3 -1 11 -24 19 -21 22 29 31 36 7 38 6 33
-13 -3 -14 0 -21 8 -21 7 0 16 -6 19 -12 3 -7 3 2 0 20 -6 32 -5 33 15 22 12
-6 26 -8 31 -5 6 3 10 2 10 -3 0 -6 9 -8 19 -5 12 3 17 11 14 19 -3 8 -1 14 5
14 5 0 13 12 17 28 l7 27 18 -22 c21 -27 35 -30 26 -7 -4 9 -1 23 5 30 9 11
13 11 26 -1 8 -8 22 -15 31 -15 13 0 11 6 -10 25 -15 14 -33 25 -40 25 -7 0 0
9 17 20 16 10 32 16 35 11 3 -4 14 -11 25 -14 l20 -7 -20 16 c-19 14 -19 16
-3 28 23 17 11 28 -14 15 -17 -9 -19 -8 -13 10 5 15 2 21 -9 21 -20 0 -21 19
-1 26 8 4 15 14 15 24 0 24 20 37 31 19 4 -8 15 -23 24 -34 16 -19 16 -19 12
8 -3 20 1 31 15 38 22 12 52 4 43 -11 -3 -5 -1 -10 4 -10 14 0 14 6 0 32 -10
19 -9 20 14 14 18 -4 27 -1 31 10 5 13 9 14 21 4 8 -7 15 -21 15 -31 0 -23 16
-25 24 -3 8 22 61 15 61 -8 0 -10 6 -23 13 -30 18 -18 34 8 26 45 -6 28 12 39
22 13 3 -8 13 -13 22 -11 9 2 19 4 22 4 3 1 -1 5 -8 10 -10 6 -10 10 3 21 13
11 15 9 15 -13 0 -19 4 -25 15 -21 10 4 15 0 15 -12 0 -14 3 -15 12 -6 17 17
28 15 28 -5 0 -13 3 -14 12 -5 16 16 28 15 28 -3 0 -8 5 -15 10 -15 6 0 10 -8
10 -19 0 -29 24 -45 40 -26 16 19 30 19 30 0 0 -8 7 -15 15 -15 18 0 19 -12 4
-27 -8 -8 -8 -13 0 -17 18 -11 13 -24 -11 -28 -32 -4 -39 -63 -9 -73 25 -8 41
1 41 21 0 20 18 18 23 -3 4 -15 5 -16 6 -2 1 23 43 33 54 13 4 -8 12 -12 17
-9 5 3 11 1 14 -4 4 -5 2 -12 -4 -16 -16 -10 -12 -65 5 -65 8 0 15 9 15 20 0
11 5 20 10 20 6 0 10 -5 10 -11 0 -6 9 -8 20 -4 15 5 20 2 20 -12 0 -11 6 -25
12 -31 9 -9 10 -15 2 -20 -6 -4 -15 -22 -19 -41 -5 -23 -4 -31 4 -27 17 11 13
-5 -6 -26 -13 -15 -14 -21 -4 -31 9 -9 14 -9 20 2 11 17 31 6 32 -17 0 -11 3
-12 6 -4 6 16 34 15 58 -4 19 -15 19 -16 2 -29 -12 -8 -14 -14 -6 -17 9 -3 8
-9 -2 -25 -18 -29 3 -58 32 -42 15 8 19 6 20 -8 0 -10 3 -13 5 -6 3 6 1 28 -5
47 -8 29 -7 36 5 36 8 0 18 10 22 21 8 20 10 20 25 5 16 -16 34 -6 22 13 -3 6
2 14 12 20 17 9 17 10 0 28 -21 24 -22 33 -2 33 9 0 19 -8 22 -17 6 -15 8 -14
14 7 7 24 7 24 14 4 5 -16 12 -20 27 -16 18 4 20 2 14 -21 -6 -27 8 -38 17
-14 6 13 11 -18 7 -42 -1 -10 4 -11 17 -6 41 17 53 17 53 2 0 -9 6 -20 13 -24
6 -4 20 -18 31 -30 16 -20 17 -24 3 -38 -9 -8 -21 -15 -28 -15 -8 0 -5 -8 6
-20 14 -15 16 -23 8 -31 -6 -6 -9 -17 -7 -24 3 -7 -10 -25 -28 -40 -30 -24
-31 -26 -8 -20 24 6 24 5 6 -9 -11 -9 -28 -16 -37 -16 -13 0 -17 -8 -16 -40 2
-37 4 -40 24 -35 12 3 25 0 28 -6 4 -6 -3 -13 -15 -16 -13 -4 -19 -11 -15 -20
4 -11 1 -13 -11 -9 -12 4 -14 1 -9 -14 5 -16 2 -20 -17 -18 -13 2 -27 8 -31
13 -5 6 -7 4 -4 -5 2 -8 11 -14 21 -12 19 3 21 -9 4 -26 -9 -9 -9 -15 0 -24
18 -18 15 -28 -8 -28 -11 0 -20 7 -20 15 0 18 -12 19 -28 3 -10 -10 -15 -10
-22 2 -7 11 -11 8 -21 -16 -20 -45 -89 -100 -97 -76 -2 6 -10 8 -19 5 -14 -5
-15 -1 -10 28 5 24 4 30 -3 19 -8 -12 -12 -13 -19 -1 -7 10 -13 11 -30 2 -26
-15 -26 -18 2 -43 l22 -19 -27 4 c-22 3 -28 0 -28 -15 0 -15 -5 -18 -20 -13
-14 4 -20 2 -18 -7 2 -8 -4 -12 -16 -10 -11 2 -26 -4 -34 -15 -13 -17 -14 -16
-10 9 4 23 1 27 -29 33 -27 5 -38 2 -49 -12 -9 -13 -13 -14 -14 -4 0 10 -3 11
-13 2 -11 -8 -16 -5 -25 14 -7 14 -8 25 -2 25 5 0 7 7 4 15 -4 10 0 15 12 15
13 0 15 3 7 11 -8 8 -21 6 -47 -6 -37 -18 -64 -44 -33 -32 10 3 17 2 17 -3 0
-6 -5 -10 -12 -10 -6 0 -3 -7 8 -16 18 -15 18 -15 -3 -9 -19 5 -23 2 -23 -14
0 -12 -4 -21 -8 -21 -17 0 -21 13 -11 31 18 34 -35 24 -65 -12 -24 -28 -36
-81 -18 -78 43 7 42 -21 -3 -45 -36 -20 -48 -45 -48 -98 0 -15 -4 -25 -9 -22
-10 7 -1 -39 17 -81 18 -40 82 -105 104 -105 11 0 32 -7 47 -15 16 -8 37 -15
46 -15 9 0 18 -4 20 -8 2 -4 19 -17 38 -29 40 -24 120 -43 230 -54 48 -4 -2
-6 -140 -4 -152 1 -198 0 -155 -6 33 -5 141 -10 240 -10 146 -1 199 3 282 20
55 12 103 21 106 21 3 0 8 -40 12 -88 l7 -88 78 40 c44 23 91 50 106 62 25 18
26 21 10 27 -9 4 -15 3 -12 -2 9 -14 -137 -101 -168 -101 -2 0 -7 30 -11 68
-10 101 -11 102 -55 102 -22 0 -74 8 -117 17 l-77 17 72 17 c76 19 221 74 237
90 6 6 -12 1 -40 -11 -86 -38 -158 -61 -147 -47 198 246 282 487 269 772 -22
479 -349 881 -817 1005 -68 18 -117 23 -245 25 -88 2 -173 1 -190 -2z"/>
</g>
</svg>
